<?xml version="1.0" encoding="utf-8"?>
<!-- Generator: Adobe Illustrator 28.1.0, SVG Export Plug-In . SVG Version: 6.00 Build 0)  -->
<svg version="1.1" id="Camada_1" xmlns="http://www.w3.org/2000/svg" xmlns:xlink="http://www.w3.org/1999/xlink" x="0px" y="0px"
	 viewBox="0 0 500 500" style="enable-background:new 0 0 500 500;" xml:space="preserve">
<style type="text/css">
	.st0{fill:url(#SVGID_1_);}
	.st1{fill:#DADADA;}
</style>
<g>
	<linearGradient id="SVGID_1_" gradientUnits="userSpaceOnUse" x1="250" y1="0" x2="250" y2="500">
		<stop  offset="0" style="stop-color:#393B90"/>
		<stop  offset="1" style="stop-color:#5560A9"/>
	</linearGradient>
	<path class="st0" d="M443.57,500H56.43C25.27,500,0,474.73,0,443.57V56.43C0,25.27,25.27,0,56.43,0h387.13
		C474.73,0,500,25.27,500,56.43v387.13C500,474.73,474.73,500,443.57,500z"/>
	<path class="st1" d="M154.71,438.55H31.04c-3.08,0-5.58-2.5-5.58-5.58V68.73c0-3.08,2.5-5.58,5.58-5.58h123.67
		c3.08,0,5.58,2.5,5.58,5.58v364.24C160.29,436.05,157.79,438.55,154.71,438.55z"/>
	<path class="st1" d="M311.84,250H188.16c-3.08,0-5.58-2.5-5.58-5.58V67.88c0-3.08,2.5-5.58,5.58-5.58h123.67
		c3.08,0,5.58,2.5,5.58,5.58v176.55C317.41,247.5,314.92,250,311.84,250z"/>
	<path class="st1" d="M468.96,375.7H345.29c-3.08,0-5.58-2.5-5.58-5.58V68.73c0-3.08,2.5-5.58,5.58-5.58h123.67
		c3.08,0,5.58,2.5,5.58,5.58v301.4C474.53,373.2,472.04,375.7,468.96,375.7z"/>
</g>
</svg>
