<?xml version="1.0" encoding="utf-8"?>
<!-- Generator: Adobe Illustrator 28.1.0, SVG Export Plug-In . SVG Version: 6.00 Build 0)  -->
<svg version="1.1" id="Camada_1" xmlns="http://www.w3.org/2000/svg" xmlns:xlink="http://www.w3.org/1999/xlink" x="0px" y="0px"
	 viewBox="0 0 500 500" style="enable-background:new 0 0 500 500;" xml:space="preserve">
<style type="text/css">
	.st0{fill:url(#SVGID_1_);}
	.st1{fill:#FFFFFF;}
</style>
<linearGradient id="SVGID_1_" gradientUnits="userSpaceOnUse" x1="250" y1="500" x2="250" y2="0" gradientTransform="matrix(1 0 0 -1 0 500)">
	<stop  offset="0" style="stop-color:#393B90"/>
	<stop  offset="1" style="stop-color:#5560A9"/>
</linearGradient>
<path class="st0" d="M443.6,500H56.4C25.3,500,0,474.7,0,443.6V56.4C0,25.3,25.3,0,56.4,0h387.1C474.7,0,500,25.3,500,56.4v387.1
	C500,474.7,474.7,500,443.6,500z"/>
<path class="st1" d="M155.5,438.5H49.3c-2.6,0-4.8-2.5-4.8-5.6V68.7c0-3.1,2.1-5.6,4.8-5.6h106.2c2.6,0,4.8,2.5,4.8,5.6V433
	C160.3,436,158.1,438.5,155.5,438.5z"/>
<path class="st1" d="M303.1,257.4H196.9c-2.6,0-4.8-1.3-4.8-2.9V66c0-1.6,2.1-2.9,4.8-2.9h106.2c2.6,0,4.8,1.3,4.8,2.9v188.5
	C307.9,256.1,305.7,257.4,303.1,257.4z"/>
<path class="st1" d="M452.4,349.7H346.2c-2.6,0-4.8-1.9-4.8-4.3V67.4c0-2.4,2.1-4.3,4.8-4.3h106.2c2.6,0,4.8,1.9,4.8,4.3v278.1
	C457.2,347.8,455,349.7,452.4,349.7z"/>
</svg>
